<svg width="154" height="37" viewBox="0 0 154 37" fill="none" xmlns="http://www.w3.org/2000/svg">
<path d="M16.0859 0.796875C17.7526 0.770833 19.1198 1.07031 20.1875 1.69531C21.2812 2.32031 22.1667 3.0625 22.8438 3.92188C23.5208 4.78125 24.0417 5.65365 24.4062 6.53906C24.7708 7.39844 25.0573 8.07552 25.2656 8.57031C25.3177 8.70052 25.4219 8.86979 25.5781 9.07812C25.7083 9.26042 25.8906 9.48177 26.125 9.74219C26.3854 9.97656 26.7109 10.25 27.1016 10.5625C26.2943 10.5885 25.5781 10.6146 24.9531 10.6406C24.3281 10.6406 23.7943 10.6536 23.3516 10.6797C22.8568 10.7057 22.4141 10.7318 22.0234 10.7578C21.6328 10.7839 21.151 10.8229 20.5781 10.875C20.0573 10.9271 19.4193 10.9792 18.6641 11.0312C17.9089 11.0833 16.9844 11.1615 15.8906 11.2656C16.5417 10.4844 17.0495 9.79427 17.4141 9.19531C17.8047 8.57031 18.0911 8.02344 18.2734 7.55469C18.4818 7.0599 18.599 6.63021 18.625 6.26562C18.6771 5.90104 18.6641 5.58854 18.5859 5.32812C18.4297 4.72917 18.026 4.29948 17.375 4.03906C15.5 3.51823 13.8594 3.9349 12.4531 5.28906C11.0729 6.61719 10.0833 8.80469 9.48438 11.8516C9.19792 13.362 8.92448 14.9375 8.66406 16.5781C8.42969 18.1927 8.33854 19.6771 8.39062 21.0312C8.44271 22.3594 8.70312 23.4401 9.17188 24.2734C9.64062 25.1068 10.4479 25.4974 11.5938 25.4453C12.7135 25.3932 13.6641 25.2109 14.4453 24.8984C15.2266 24.5599 15.8516 24.1693 16.3203 23.7266C16.7891 23.2578 17.1146 22.763 17.2969 22.2422C17.5052 21.6953 17.5833 21.1875 17.5312 20.7188C17.4271 20.3542 17.1536 19.9635 16.7109 19.5469C16.3203 19.1823 15.7344 18.7786 14.9531 18.3359C14.1719 17.8672 13.0521 17.3854 11.5938 16.8906C12.974 16.8125 14.1068 16.7604 14.9922 16.7344C15.9036 16.6823 16.6198 16.6302 17.1406 16.5781C17.7656 16.526 18.2474 16.487 18.5859 16.4609C18.8984 16.4349 19.3542 16.4089 19.9531 16.3828C20.474 16.3568 21.138 16.3438 21.9453 16.3438C22.7786 16.3438 23.8203 16.3307 25.0703 16.3047C24.6016 16.7734 24.237 17.2031 23.9766 17.5938C23.8464 17.8021 23.7292 17.9844 23.625 18.1406C23.5208 18.401 23.4818 18.9349 23.5078 19.7422C23.5078 20.4193 23.5599 21.4219 23.6641 22.75C23.7682 24.0521 23.9635 25.8359 24.25 28.1016L19.0547 28.8047L19.2891 23.5312C18.6901 24.9635 17.9349 26.0312 17.0234 26.7344C16.138 27.4375 15.2917 27.9323 14.4844 28.2188C13.5208 28.5573 12.5182 28.7135 11.4766 28.6875C10.1224 28.5573 8.76823 28.2448 7.41406 27.75C6.0599 27.2552 4.86198 26.5 3.82031 25.4844C2.77865 24.4427 1.97135 23.1016 1.39844 21.4609C0.851562 19.8203 0.682292 17.7891 0.890625 15.3672C1.125 12.9453 1.69792 10.8359 2.60938 9.03906C3.54688 7.21615 4.70573 5.70573 6.08594 4.50781C7.46615 3.3099 9.01562 2.41146 10.7344 1.8125C12.4792 1.1875 14.263 0.848958 16.0859 0.796875ZM27.1016 11.5391L34.2891 11.6172C33.8724 13.2057 33.5599 14.5599 33.3516 15.6797C33.1693 16.7995 33.0521 17.737 33 18.4922C32.8958 19.3516 32.8698 20.0807 32.9219 20.6797C33 21.2266 33.1302 21.8125 33.3125 22.4375C33.4688 22.9583 33.7031 23.5573 34.0156 24.2344C34.3281 24.9115 34.7448 25.5885 35.2656 26.2656C34.9531 26.1615 34.6146 26.0833 34.25 26.0312C33.8854 25.9792 33.5469 25.9401 33.2344 25.9141C32.8698 25.888 32.5052 25.888 32.1406 25.9141C31.776 25.9401 31.3724 25.9792 30.9297 26.0312C30.5651 26.0833 30.1224 26.1484 29.6016 26.2266C29.0807 26.3047 28.5339 26.4089 27.9609 26.5391C28.3516 25.3672 28.651 24.3516 28.8594 23.4922C29.0938 22.6328 29.263 21.9167 29.3672 21.3438C29.4714 20.6667 29.5365 20.1198 29.5625 19.7031C29.5625 19.1823 29.5625 18.5964 29.5625 17.9453C29.5625 17.2682 29.5625 16.6172 29.5625 15.9922C29.5625 15.3672 29.5495 14.8203 29.5234 14.3516C29.4974 13.8568 29.4453 13.5443 29.3672 13.4141L28.9766 13.0234C28.8203 12.8932 28.5859 12.7109 28.2734 12.4766C27.987 12.2161 27.5964 11.9036 27.1016 11.5391ZM29.875 5.52344C30.4219 5.23698 30.9688 5.15885 31.5156 5.28906C32.0885 5.41927 32.5312 5.66667 32.8438 6.03125C33.1562 6.39583 33.2604 6.82552 33.1562 7.32031C33.0781 7.8151 32.6615 8.29688 31.9062 8.76562C31.151 9.20833 30.487 9.36458 29.9141 9.23438C29.3411 9.10417 28.9375 8.83073 28.7031 8.41406C28.4688 7.9974 28.4297 7.51562 28.5859 6.96875C28.7422 6.39583 29.1719 5.91406 29.875 5.52344ZM55.1094 12.4375C55.0312 11.9167 54.9661 11.487 54.9141 11.1484C54.862 10.7839 54.8099 10.4974 54.7578 10.2891C54.7057 10.0286 54.6667 9.83333 54.6406 9.70312C54.5885 9.57292 54.5234 9.42969 54.4453 9.27344C54.3932 9.14323 54.3021 8.98698 54.1719 8.80469C54.0677 8.6224 53.9375 8.41406 53.7812 8.17969C54.1198 8.28385 54.4583 8.34896 54.7969 8.375C55.1615 8.40104 55.5 8.42708 55.8125 8.45312C56.151 8.47917 56.5026 8.47917 56.8672 8.45312C57.2318 8.45312 57.6484 8.4401 58.1172 8.41406C58.5339 8.38802 59.0286 8.375 59.6016 8.375C60.2005 8.34896 60.8776 8.3099 61.6328 8.25781C61.1901 8.36198 60.8125 8.54427 60.5 8.80469C60.2135 9.03906 59.9661 9.29948 59.7578 9.58594C59.5234 9.89844 59.3281 10.237 59.1719 10.6016C59.0417 10.9401 58.9635 11.5911 58.9375 12.5547C58.9115 13.4922 58.9115 14.612 58.9375 15.9141C58.9635 17.1901 58.9896 18.5703 59.0156 20.0547C59.0677 21.5391 59.0938 22.9583 59.0938 24.3125C59.1198 25.6667 59.1198 26.9036 59.0938 28.0234C59.0677 29.1172 59.0026 29.9245 58.8984 30.4453C58.5339 32.0859 57.8568 33.4141 56.8672 34.4297C55.8776 35.4714 54.5755 36.0312 52.9609 36.1094C51.0078 36.1875 49.4583 36.0052 48.3125 35.5625C47.1927 35.1198 46.3203 34.5729 45.6953 33.9219C45.0703 33.2969 44.6016 32.6589 44.2891 32.0078C43.9766 31.3568 43.651 30.862 43.3125 30.5234C43 30.237 42.6875 29.9635 42.375 29.7031C42.0885 29.4948 41.7891 29.2865 41.4766 29.0781C41.1901 28.8698 40.9036 28.7396 40.6172 28.6875C41.3724 28.7135 42.0495 28.7266 42.6484 28.7266C43.2474 28.7266 43.7552 28.7266 44.1719 28.7266C44.6406 28.7266 45.0573 28.7135 45.4219 28.6875H46.6719H50.2266C49.7057 28.8438 49.3151 29.013 49.0547 29.1953C48.7943 29.4036 48.612 29.612 48.5078 29.8203C48.4036 30.0547 48.3516 30.2891 48.3516 30.5234C48.4557 31.1484 48.7943 31.6042 49.3672 31.8906C49.9401 32.1771 50.7214 32.3464 51.7109 32.3984C52.6745 32.4505 53.3385 32.4245 53.7031 32.3203C54.0677 32.2422 54.3542 32.0859 54.5625 31.8516C54.9792 31.2266 55.3307 30.4193 55.6172 29.4297C55.8255 28.5964 55.9688 27.5156 56.0469 26.1875C56.151 24.8333 56.0339 23.1797 55.6953 21.2266C54.862 22.3724 53.8984 23.2318 52.8047 23.8047C51.7109 24.3776 50.6693 24.7943 49.6797 25.0547C48.5078 25.3411 47.3229 25.4844 46.125 25.4844C42.974 25.3542 40.6172 24.625 39.0547 23.2969C37.4922 21.9688 36.776 20.1849 36.9062 17.9453C36.9844 16.8255 37.3229 15.7057 37.9219 14.5859C38.5469 13.4661 39.3542 12.4635 40.3438 11.5781C41.3594 10.6927 42.5182 9.98958 43.8203 9.46875C45.1224 8.94792 46.4766 8.72656 47.8828 8.80469C48.9505 8.90885 49.9531 9.10417 50.8906 9.39062C51.6979 9.65104 52.4922 10.0156 53.2734 10.4844C54.0807 10.9531 54.6927 11.6042 55.1094 12.4375ZM42.6875 16.3438C42.5312 17.3594 42.5964 18.3099 42.8828 19.1953C43.1953 20.0807 43.625 20.849 44.1719 21.5C44.7188 22.125 45.3307 22.6198 46.0078 22.9844C46.6849 23.3229 47.3229 23.4792 47.9219 23.4531C49.1719 23.4271 50.2526 22.8672 51.1641 21.7734C52.0755 20.6536 52.6224 18.987 52.8047 16.7734C52.8828 15.6797 52.7396 14.7422 52.375 13.9609C52.0365 13.1536 51.6068 12.5026 51.0859 12.0078C50.5651 11.513 50.0182 11.1615 49.4453 10.9531C48.8724 10.7448 48.4167 10.6536 48.0781 10.6797C47.6094 10.7318 47.0885 10.875 46.5156 11.1094C45.9688 11.3177 45.4349 11.6432 44.9141 12.0859C44.3932 12.5026 43.9245 13.0625 43.5078 13.7656C43.1172 14.4688 42.8438 15.3281 42.6875 16.3438ZM64.9141 13.1797C65.0443 13.0234 65.1224 12.737 65.1484 12.3203C65.2005 11.8776 65.3047 11.3828 65.4609 10.8359C65.6432 10.2891 65.9427 9.71615 66.3594 9.11719C66.776 8.51823 67.4531 7.95833 68.3906 7.4375C69.3021 6.91667 70.1875 6.60417 71.0469 6.5C71.9062 6.39583 72.7266 6.4349 73.5078 6.61719C74.2891 6.79948 75.0182 7.08594 75.6953 7.47656C76.3984 7.86719 77.0365 8.29688 77.6094 8.76562C78 9.07812 78.3125 9.53385 78.5469 10.1328C78.7812 10.7057 78.9635 11.3568 79.0938 12.0859C79.224 12.8151 79.3151 13.5833 79.3672 14.3906C79.4453 15.1719 79.4974 15.9401 79.5234 16.6953C79.5495 17.4245 79.5625 18.1016 79.5625 18.7266C79.5885 19.3255 79.6406 19.8203 79.7188 20.2109C79.8229 20.7839 80.0052 21.2786 80.2656 21.6953C80.526 22.0859 80.8125 22.4245 81.125 22.7109C81.4375 22.9714 81.75 23.1797 82.0625 23.3359C82.375 23.4922 82.6484 23.6094 82.8828 23.6875C83.0391 23.7656 83.1823 23.8177 83.3125 23.8438C83.5729 23.9479 83.7552 23.9479 83.8594 23.8438C83.7031 24.2083 83.5599 24.5208 83.4297 24.7812C83.2995 25.0417 83.1953 25.263 83.1172 25.4453C83.013 25.6536 82.9219 25.8229 82.8438 25.9531C82.7656 26.1094 82.6745 26.2526 82.5703 26.3828C82.4922 26.513 82.388 26.6562 82.2578 26.8125C82.1276 26.9688 81.9974 27.138 81.8672 27.3203C81.5286 27.1901 81.2031 27.0339 80.8906 26.8516C80.6042 26.6693 80.3438 26.5 80.1094 26.3438C79.8229 26.1615 79.5625 25.9792 79.3281 25.7969C79.0938 25.6146 78.8724 25.4062 78.6641 25.1719C78.4818 24.9635 78.2865 24.7422 78.0781 24.5078C77.8958 24.2734 77.7396 24.013 77.6094 23.7266C77.4531 24.0651 77.0755 24.5469 76.4766 25.1719C75.9036 25.7969 75.1484 26.3698 74.2109 26.8906C73.2734 27.3854 72.1797 27.737 70.9297 27.9453C69.7057 28.1536 68.3516 28.0104 66.8672 27.5156C66.2161 27.3073 65.6042 27.0078 65.0312 26.6172C64.4583 26.2005 63.9635 25.7057 63.5469 25.1328C63.1562 24.5599 62.8698 23.9089 62.6875 23.1797C62.5312 22.4245 62.5443 21.5911 62.7266 20.6797C62.9089 19.7682 63.2344 19 63.7031 18.375C64.1719 17.75 64.7318 17.2422 65.3828 16.8516C66.0339 16.4609 66.763 16.1615 67.5703 15.9531C68.3776 15.7448 69.2109 15.6016 70.0703 15.5234C70.7474 15.4974 71.4245 15.5365 72.1016 15.6406C72.6745 15.7448 73.2734 15.9401 73.8984 16.2266C74.5234 16.487 75.0573 16.8906 75.5 17.4375C75.474 16.0573 75.4219 14.9635 75.3438 14.1562C75.2917 13.3229 75.2396 12.6849 75.1875 12.2422C75.0833 11.7214 74.9922 11.3568 74.9141 11.1484C74.7839 10.9661 74.6406 10.7578 74.4844 10.5234C74.3542 10.2891 74.1849 10.0807 73.9766 9.89844C73.7682 9.6901 73.5078 9.52083 73.1953 9.39062C72.8828 9.26042 72.5182 9.20833 72.1016 9.23438C71.6589 9.26042 71.3073 9.3776 71.0469 9.58594C70.7865 9.79427 70.5781 10.0417 70.4219 10.3281C70.2917 10.5885 70.2135 10.875 70.1875 11.1875C70.1615 11.5 70.1745 11.7734 70.2266 12.0078C70.2786 12.1641 70.3568 12.3333 70.4609 12.5156C70.5651 12.6719 70.7083 12.8411 70.8906 13.0234C71.0729 13.2057 71.3203 13.362 71.6328 13.4922C71.0339 13.5703 70.5 13.6354 70.0312 13.6875C69.5625 13.7135 69.1589 13.7526 68.8203 13.8047C68.4297 13.8568 68.0911 13.8958 67.8047 13.9219C67.5182 13.9479 67.1797 14 66.7891 14.0781C66.4505 14.1302 66.0339 14.1953 65.5391 14.2734C65.0443 14.3516 64.4714 14.4557 63.8203 14.5859C63.9766 14.4036 64.1198 14.2344 64.25 14.0781C64.3802 13.8958 64.4974 13.7396 64.6016 13.6094C64.7057 13.4531 64.8099 13.3099 64.9141 13.1797ZM70.7734 17.8281C70.3047 17.8542 69.8359 17.9714 69.3672 18.1797C68.8984 18.362 68.4818 18.6354 68.1172 19C67.7526 19.3385 67.4401 19.7422 67.1797 20.2109C66.9453 20.6536 66.8281 21.1484 66.8281 21.6953C66.8281 22.2422 66.9583 22.724 67.2188 23.1406C67.5052 23.5312 67.8698 23.8568 68.3125 24.1172C68.7812 24.3776 69.276 24.5339 69.7969 24.5859C70.3438 24.638 70.8776 24.5859 71.3984 24.4297C71.8932 24.2474 72.362 23.9609 72.8047 23.5703C73.2474 23.1536 73.625 22.7109 73.9375 22.2422C74.25 21.7474 74.4714 21.2656 74.6016 20.7969C74.7318 20.3021 74.7448 19.8984 74.6406 19.5859C74.4323 18.9089 73.9635 18.4401 73.2344 18.1797C72.5052 17.8932 71.6849 17.776 70.7734 17.8281ZM81.6719 1.26562C82.5833 1.36979 83.3516 1.44792 83.9766 1.5C84.6016 1.52604 85.0964 1.55208 85.4609 1.57812C85.9036 1.60417 86.2552 1.61719 86.5156 1.61719C86.9583 1.61719 87.4661 1.60417 88.0391 1.57812C88.5339 1.55208 89.1068 1.51302 89.7578 1.46094C90.4349 1.38281 91.1641 1.26562 91.9453 1.10938C91.5807 1.5 91.2812 1.8776 91.0469 2.24219C90.8125 2.58073 90.6302 2.89323 90.5 3.17969C90.3438 3.49219 90.2135 3.77865 90.1094 4.03906C90.0052 4.3776 89.888 4.89844 89.7578 5.60156C89.6276 6.20052 89.4844 7.04688 89.3281 8.14062C89.1979 9.23438 89.0286 10.6667 88.8203 12.4375C89.7057 12.4635 90.474 12.4766 91.125 12.4766C91.776 12.4505 92.3229 12.4375 92.7656 12.4375H94.0547C94.4193 12.4115 94.8359 12.3854 95.3047 12.3594C96.0859 12.3333 97.2708 12.2552 98.8594 12.125C98.9896 10.9271 99.0547 9.89844 99.0547 9.03906C99.0807 8.15365 99.0677 7.41146 99.0156 6.8125C98.9635 6.13542 98.8854 5.5625 98.7812 5.09375C98.7031 4.83333 98.5859 4.52083 98.4297 4.15625C98.2995 3.84375 98.1172 3.46615 97.8828 3.02344C97.6745 2.55469 97.388 1.99479 97.0234 1.34375C97.7005 1.44792 98.2995 1.52604 98.8203 1.57812C99.3672 1.60417 99.8229 1.63021 100.188 1.65625C100.604 1.68229 100.956 1.69531 101.242 1.69531C101.529 1.69531 101.906 1.68229 102.375 1.65625C102.766 1.63021 103.247 1.61719 103.82 1.61719C104.393 1.59115 105.096 1.55208 105.93 1.5C105.721 1.86458 105.539 2.24219 105.383 2.63281C105.227 3.02344 105.096 3.375 104.992 3.6875C104.888 4.05208 104.784 4.41667 104.68 4.78125C104.549 5.32812 104.432 6.1224 104.328 7.16406C104.25 8.20573 104.172 9.36458 104.094 10.6406C104.042 11.9167 103.99 13.2448 103.938 14.625C103.911 16.0052 103.885 17.3073 103.859 18.5312C103.859 19.7552 103.872 20.849 103.898 21.8125C103.924 22.75 103.977 23.4141 104.055 23.8047C104.133 24.2734 104.263 24.7552 104.445 25.25C104.602 25.6927 104.81 26.1745 105.07 26.6953C105.331 27.1901 105.669 27.6589 106.086 28.1016L96.6719 28.8047C97.0625 28.4401 97.375 28.0885 97.6094 27.75C97.8438 27.3854 98.026 27.0729 98.1562 26.8125C98.2865 26.526 98.3776 26.2526 98.4297 25.9922C98.4557 25.6797 98.4948 25.1328 98.5469 24.3516C98.599 23.7005 98.651 22.776 98.7031 21.5781C98.7552 20.3802 98.8073 18.7917 98.8594 16.8125C98.4948 16.8125 98.0521 16.8255 97.5312 16.8516C97.0365 16.8516 96.5677 16.8646 96.125 16.8906C95.6042 16.9167 95.0573 16.9297 94.4844 16.9297C93.9115 16.9557 93.3125 16.9818 92.6875 17.0078C92.1667 17.0599 91.5807 17.112 90.9297 17.1641C90.3047 17.1901 89.6797 17.2292 89.0547 17.2812C89.0026 18.375 89.0026 19.3385 89.0547 20.1719C89.1068 20.9792 89.1849 21.6693 89.2891 22.2422C89.3932 22.9193 89.5234 23.5052 89.6797 24C89.8359 24.4688 90.0052 24.9375 90.1875 25.4062C90.3438 25.8229 90.526 26.2656 90.7344 26.7344C90.9688 27.2031 91.2031 27.6198 91.4375 27.9844C90.9427 27.9323 90.487 27.8932 90.0703 27.8672C89.6536 27.8151 89.2891 27.763 88.9766 27.7109C88.612 27.6849 88.2604 27.6589 87.9219 27.6328C87.5833 27.6328 87.1797 27.6198 86.7109 27.5938C86.2943 27.5677 85.7734 27.5547 85.1484 27.5547C84.5234 27.5286 83.7943 27.5156 82.9609 27.5156C83.4557 27.0208 83.8464 26.5391 84.1328 26.0703C84.4453 25.5755 84.6667 25.1328 84.7969 24.7422C84.9531 24.2734 85.0573 23.8438 85.1094 23.4531C85.1354 23.1146 85.1484 22.4766 85.1484 21.5391C85.1745 20.6016 85.1745 19.5339 85.1484 18.3359C85.1484 17.112 85.1354 15.8359 85.1094 14.5078C85.0833 13.1536 85.0443 11.8906 84.9922 10.7188C84.9661 9.54688 84.9271 8.54427 84.875 7.71094C84.849 6.85156 84.8229 6.31771 84.7969 6.10938C84.6667 5.64062 84.4714 5.13281 84.2109 4.58594C83.9766 4.14323 83.6641 3.63542 83.2734 3.0625C82.8828 2.46354 82.349 1.86458 81.6719 1.26562ZM107.062 11.5391L114.25 11.6172C113.833 13.2057 113.521 14.5599 113.312 15.6797C113.13 16.7995 113.013 17.737 112.961 18.4922C112.857 19.3516 112.831 20.0807 112.883 20.6797C112.961 21.2266 113.091 21.8125 113.273 22.4375C113.43 22.9583 113.664 23.5573 113.977 24.2344C114.289 24.9115 114.706 25.5885 115.227 26.2656C114.914 26.1615 114.576 26.0833 114.211 26.0312C113.846 25.9792 113.508 25.9401 113.195 25.9141C112.831 25.888 112.466 25.888 112.102 25.9141C111.737 25.9401 111.333 25.9792 110.891 26.0312C110.526 26.0833 110.083 26.1484 109.562 26.2266C109.042 26.3047 108.495 26.4089 107.922 26.5391C108.312 25.3672 108.612 24.3516 108.82 23.4922C109.055 22.6328 109.224 21.9167 109.328 21.3438C109.432 20.6667 109.497 20.1198 109.523 19.7031C109.523 19.1823 109.523 18.5964 109.523 17.9453C109.523 17.2682 109.523 16.6172 109.523 15.9922C109.523 15.3672 109.51 14.8203 109.484 14.3516C109.458 13.8568 109.406 13.5443 109.328 13.4141L108.938 13.0234C108.781 12.8932 108.547 12.7109 108.234 12.4766C107.948 12.2161 107.557 11.9036 107.062 11.5391ZM109.836 5.52344C110.383 5.23698 110.93 5.15885 111.477 5.28906C112.049 5.41927 112.492 5.66667 112.805 6.03125C113.117 6.39583 113.221 6.82552 113.117 7.32031C113.039 7.8151 112.622 8.29688 111.867 8.76562C111.112 9.20833 110.448 9.36458 109.875 9.23438C109.302 9.10417 108.898 8.83073 108.664 8.41406C108.43 7.9974 108.391 7.51562 108.547 6.96875C108.703 6.39583 109.133 5.91406 109.836 5.52344ZM114.055 7.47656C114.497 7.55469 114.953 7.61979 115.422 7.67188C115.865 7.69792 116.268 7.72396 116.633 7.75C117.049 7.77604 117.453 7.78906 117.844 7.78906C118.234 7.78906 118.677 7.77604 119.172 7.75C119.589 7.72396 120.083 7.6849 120.656 7.63281C121.255 7.58073 121.906 7.5026 122.609 7.39844C122.193 7.63281 121.867 7.88021 121.633 8.14062C121.398 8.40104 121.216 8.63542 121.086 8.84375C120.93 9.10417 120.826 9.33854 120.773 9.54688C120.721 9.75521 120.734 10.1849 120.812 10.8359C120.891 11.487 120.995 12.2422 121.125 13.1016C121.281 13.9609 121.451 14.8594 121.633 15.7969C121.815 16.7344 121.997 17.5938 122.18 18.375C122.388 19.1562 122.57 19.8073 122.727 20.3281C122.909 20.849 123.052 21.0964 123.156 21.0703C123.26 21.0703 123.417 20.8099 123.625 20.2891C123.859 19.7682 124.12 19.1302 124.406 18.375C124.693 17.5938 124.992 16.7474 125.305 15.8359C125.617 14.8984 125.891 14.026 126.125 13.2188C126.359 12.4115 126.542 11.7344 126.672 11.1875C126.828 10.6146 126.893 10.276 126.867 10.1719C126.789 10.0677 126.698 9.92448 126.594 9.74219C126.411 9.45573 126.008 8.96094 125.383 8.25781C126.138 8.3099 126.789 8.36198 127.336 8.41406C127.883 8.4401 128.326 8.47917 128.664 8.53125C129.055 8.58333 129.367 8.6224 129.602 8.64844C129.836 8.67448 130.174 8.67448 130.617 8.64844C130.982 8.64844 131.464 8.63542 132.062 8.60938C132.688 8.55729 133.456 8.47917 134.367 8.375C133.69 8.76562 133.13 9.11719 132.688 9.42969C132.271 9.71615 131.945 9.96354 131.711 10.1719C131.424 10.4323 131.216 10.6536 131.086 10.8359C130.904 11.1745 130.578 11.9818 130.109 13.2578C129.901 13.8047 129.641 14.4818 129.328 15.2891C129.042 16.0964 128.69 17.0729 128.273 18.2188C127.883 19.3385 127.414 20.6536 126.867 22.1641C126.32 23.6745 125.708 25.4062 125.031 27.3594L121.242 27.75C120.747 26.1094 120.344 24.7422 120.031 23.6484C119.745 22.5286 119.51 21.6302 119.328 20.9531C119.12 20.1719 118.964 19.5599 118.859 19.1172C118.729 18.6224 118.573 17.9062 118.391 16.9688C118.208 16.0052 118.026 15.0286 117.844 14.0391C117.661 13.0495 117.479 12.1641 117.297 11.3828C117.115 10.5755 116.971 10.0807 116.867 9.89844C116.763 9.76823 116.581 9.58594 116.32 9.35156C116.112 9.14323 115.826 8.89583 115.461 8.60938C115.096 8.29688 114.628 7.91927 114.055 7.47656ZM142.531 22.7109C143.26 22.7109 143.938 22.6328 144.562 22.4766C145.083 22.3464 145.578 22.138 146.047 21.8516C146.542 21.5391 146.867 21.0833 147.023 20.4844C147.544 20.5885 147.987 20.6797 148.352 20.7578C148.716 20.8099 149.029 20.862 149.289 20.9141C149.576 20.9922 149.823 21.0443 150.031 21.0703C150.24 21.1224 150.487 21.1745 150.773 21.2266C151.034 21.2786 151.346 21.3438 151.711 21.4219C152.102 21.474 152.557 21.5521 153.078 21.6562C152.688 21.6042 152.284 21.6432 151.867 21.7734C151.477 21.9036 151.099 22.0469 150.734 22.2031C150.318 22.3854 149.927 22.6068 149.562 22.8672C149.328 23.0234 149.055 23.2578 148.742 23.5703C148.456 23.8828 148.039 24.1823 147.492 24.4688C146.945 24.7552 146.216 25.0026 145.305 25.2109C144.419 25.3932 143.273 25.4583 141.867 25.4062C140.174 25.3542 138.755 25.0547 137.609 24.5078C136.464 23.9349 135.539 23.2448 134.836 22.4375C134.133 21.6042 133.625 20.7057 133.312 19.7422C133 18.7786 132.831 17.8802 132.805 17.0469C132.779 16.2135 133.026 15.3411 133.547 14.4297C134.068 13.5182 134.797 12.6849 135.734 11.9297C136.698 11.1745 137.857 10.5625 139.211 10.0938C140.565 9.59896 142.049 9.35156 143.664 9.35156C144.602 9.35156 145.461 9.46875 146.242 9.70312C147.049 9.91146 147.779 10.1979 148.43 10.5625C149.107 10.9271 149.693 11.3438 150.188 11.8125C150.682 12.2552 151.099 12.7109 151.438 13.1797C151.776 13.6745 152.062 14.1953 152.297 14.7422C152.505 15.2109 152.674 15.7448 152.805 16.3438C152.935 16.9427 152.974 17.5547 152.922 18.1797C150.943 18.2318 149.341 18.2708 148.117 18.2969C146.919 18.3229 145.982 18.3359 145.305 18.3359H143.547H142.219C141.75 18.3359 141.138 18.349 140.383 18.375C139.628 18.401 138.703 18.4401 137.609 18.4922C137.74 19.5339 138.065 20.3411 138.586 20.9141C139.133 21.4609 139.706 21.8776 140.305 22.1641C140.982 22.4766 141.724 22.6589 142.531 22.7109ZM139.016 15.6797C139.849 15.7318 140.539 15.7708 141.086 15.7969C141.659 15.8229 142.128 15.849 142.492 15.875C142.883 15.901 143.195 15.9141 143.43 15.9141H144.406C145.057 15.9141 146.268 15.875 148.039 15.7969C147.961 14.651 147.714 13.7786 147.297 13.1797C146.906 12.5807 146.49 12.138 146.047 11.8516C145.526 11.5391 144.953 11.3568 144.328 11.3047C142.635 11.3307 141.372 11.6823 140.539 12.3594C139.732 13.0365 139.224 14.1432 139.016 15.6797Z" fill="#0D0D0D"/>
</svg>
